<?xml version="1.0" encoding="UTF-8"?>
<svg id="Calque_1" data-name="Calque 1" xmlns="http://www.w3.org/2000/svg" viewBox="0 0 500 500">
  <defs>
    <style>
      .cls-1, .cls-2, .cls-3, .cls-4 {
        stroke-width: 0px;
      }

      .cls-2 {
        fill: none;
      }

      .cls-3 {
        fill: #683c11;
      }

      .cls-4 {
        fill: #ca9e67;
      }
    </style>
  </defs>
  <path class="cls-2" d="m449.79,273.36c-.52,3.02-1.04,5.87-1.56,8.53-.06.31-.13.6-.19.9.57.26,1.14.53,1.7.79.06-3.3.08-6.71.05-10.23Z"/>
  <path class="cls-2" d="m249.82,293.06c1.64-.23,3.37-1.8,5.19-4.69-2.75,1.16-5.47,2.28-8.15,3.33.9,1.04,1.89,1.51,2.96,1.36Z"/>
  <path class="cls-2" d="m357.54,245.32c1.63.56,3.21,1.21,4.73,1.95l-.2-8.38c-1.42,2.25-2.94,4.4-4.53,6.43Z"/>
  <path class="cls-2" d="m157.6,199.61c-2.83.94-4.92,4.68-6.27,11.23s-2.08,14.47-2.16,23.76c-.09,9.29.33,18.54,1.26,27.75.92,9.21,2.22,16.95,3.89,23.22,1.67,6.26,3.61,9.61,5.8,10.04,1.73-.07,3.13-3.37,4.2-9.88s1.76-14.63,2.08-24.35c.02-.69.03-1.38.05-2.07-3.76-12.39-3.92-25.65-1.33-38.97-.5-4.41-1.12-8.34-1.87-11.76-1.38-6.26-3.26-9.25-5.63-8.96Z"/>
  <path class="cls-4" d="m113.55,197.67c-3.12-.72-5.41.7-6.88,4.27-1.3,3.15-1.89,6.97-1.77,11.47,4.21-3.77,8.17-8.13,11.68-12.85-.88-1.48-1.88-2.45-3.03-2.88Z"/>
  <path class="cls-3" d="m436.81,292.42c1.61-.97,3.24-5.08,4.91-12.32-3.04-1.21-6.22-2.37-9.48-3.5.13,1.36.27,2.66.42,3.89,1.15,8.93,2.54,12.9,4.15,11.93Z"/>
  <path class="cls-4" d="m52.82,150.05l-6.01.1.02,1.21c1.38-.51,2.8-.89,4.27-1.07.57-.07,1.15-.15,1.72-.25Z"/>
  <path class="cls-1" d="m48.46,273.03c-.06,13.25,1.36,22.46,4.24,27.64,2.89,5.18,6.78,7.7,11.68,7.56,2.65,0,5.34-.59,8.05-1.78,2.71-1.19,5.48-2.57,8.31-4.16,3.06-1.73,5.97-3.13,8.74-4.21l-2.86-9.61c-3.69,1.37-6.87,2.7-9.52,4-4.21,2.09-7.47,3.15-9.78,3.19s-3.94-1.98-4.89-6.05c-.95-4.07-1.49-11.25-1.6-21.54l-.09-4.21,26.92-.97-.17-10.37-26.83.97-.33-24.99c-4.32-.77-8.53-2.25-12.53-4.48l.66,49.02Z"/>
  <path class="cls-4" d="m88.1,159.01l-.69-10.26-28.13,3.24v-2.05l-6.46.11c-.57.09-1.14.18-1.72.25-1.47.18-2.89.55-4.27,1.07l.97,72.65c4,2.23,8.21,3.71,12.53,4.48l-.88-66.25,28.65-3.24Z"/>
  <path class="cls-1" d="m95.07,220.78c.99,4.92,2.99,10.17,6.01,15.75,2.08,3.6,4.36,7.16,6.84,10.69,3.29,4.61,6.25,9.41,8.87,14.42s4.2,10.38,4.72,16.14c.17,2.81.14,5.4-.09,7.77-.23,2.38-.95,4.68-2.16,6.91-2.08,3.53-3.82,4.52-5.24,2.97-1.41-1.55-2.51-4.32-3.29-8.31-.78-4-1.21-7.95-1.3-11.88-.09-3.92.13-6.57.65-7.94l-12.03-.43c-.23,6.26.32,12.54,1.64,18.84,1.33,6.3,3.32,11.55,5.97,15.76,2.65,4.21,5.83,6.32,9.52,6.32,3.64-.36,6.65-2.25,9.04-5.67,2.39-3.42,4.15-7.47,5.28-12.15,1.13-4.68,1.57-9.07,1.34-13.17-.58-7.56-2.21-14.06-4.89-19.49s-5.81-10.64-9.39-15.6c-2.48-3.67-4.93-7.56-7.36-11.66-2.48-4.61-3.89-9.56-4.24-14.85-.04-.62-.07-1.22-.08-1.81-.19.17-.38.35-.58.53-2.96,2.6-6.06,4.89-9.25,6.86Z"/>
  <path class="cls-1" d="m118.13,204.14c1.15,3.6,1.67,7.63,1.56,12.09-.12,4.46-1.13,8.42-3.03,11.88l9,4.32c2.25-4.18,3.39-9.75,3.42-16.74.03-6.98-1.21-13.35-3.72-19.11-.84-1.93-1.85-3.56-3.01-4.9-1.73,3.06-3.67,6.02-5.77,8.86.58.98,1.1,2.17,1.55,3.6Z"/>
  <path class="cls-4" d="m113.55,187.19c-4.62-.07-8.81,2.09-12.59,6.48-3.78,4.39-5.96,10.31-6.53,17.76-.23,2.97,0,6.09.65,9.35,3.18-1.97,6.28-4.25,9.25-6.86.19-.17.38-.35.58-.53-.12-4.5.47-8.32,1.77-11.47,1.47-3.56,3.76-4.98,6.88-4.27,1.15.43,2.16,1.4,3.03,2.88,2.11-2.84,4.04-5.8,5.77-8.86-2.31-2.66-5.24-4.16-8.8-4.5Z"/>
  <path class="cls-1" d="m166.38,261.37c-.32,9.72-1.01,17.83-2.08,24.35s-2.47,9.81-4.2,9.88c-2.19-.43-4.13-3.78-5.8-10.04-1.67-6.26-2.97-14-3.89-23.22-.92-9.21-1.34-18.46-1.26-27.75.09-9.29.81-17.2,2.16-23.76s3.45-10.29,6.27-11.23c2.37-.29,4.24,2.7,5.63,8.96.76,3.42,1.38,7.35,1.87,11.76,1.06-5.43,2.58-10.87,4.49-16.28-.64-2.14-1.34-4.22-2.12-6.22-2.31-5.94-5.39-9.05-9.26-9.34-1.96.14-3.74,1.17-5.32,3.08-1.59,1.91-2.9,4.23-3.94,6.96l-.09-3.67-.09-7.45-12.38.32.09,7.34,2.6,155.38,12.38-.22-.87-52.48c3.23,6.12,6.16,9.3,8.78,9.56,2.63.25,4.92-1.33,6.88-4.75,1.96-3.42,3.56-7.58,4.8-12.47,1.24-4.9,2.09-9.39,2.55-13.5.04-.41.08-.83.12-1.24-3.21-5.13-5.61-10.51-7.3-16.05-.02.69-.02,1.38-.05,2.07Z"/>
  <path class="cls-4" d="m174.48,233.84c-.23-3.89-.88-9.38-1.95-16.47-.71-4.69-1.69-9.13-2.94-13.32-1.91,5.4-3.43,10.84-4.49,16.28.41,3.68.75,7.68.98,12.05.48,8.93.59,17.9.35,26.92,1.68,5.55,4.09,10.92,7.3,16.05,1.33-13.43,1.59-27.27.75-41.52Z"/>
  <path class="cls-1" d="m183.65,308.02l12.46-.43-.09-1.62h.09c-.03-3.23-.03-6.44-.04-9.65-4.46-2-8.76-4.95-12.89-9.03l.47,20.74Z"/>
  <path class="cls-4" d="m196.16,272.71c.14-11.01.71-21.88,1.69-32.61,1.67-17.13,3.4-28.61,5.19-34.45,1.79-5.83,3.48-7.41,5.06-4.75,1.59,2.66,2.93,8.17,4.02,16.52,1.1,8.35,1.79,18.14,2.08,29.37l8.31-.32c-.12-5.54-.35-11.19-.69-16.95-.4-5.83-1.18-11.81-2.34-17.92-1.85-9.21-4.24-16.02-7.18-20.41-2.94-4.39-6.02-5.47-9.22-3.24-3.2,2.23-6.07,8.71-8.61,19.44-.23.86-.43,1.73-.61,2.59l-.35-17.17-.17-5.4-12.37.43.09,5.4,2.13,94.04c4.13,4.09,8.43,7.03,12.89,9.03-.03-7.9-.02-15.78.09-23.6Z"/>
  <path class="cls-1" d="m249.82,293.06c-1.08.15-2.06-.32-2.96-1.36-4.06,1.59-8.06,3.04-11.98,4.26,2.55,5.52,5.9,8.82,10.05,9.9,4.67,1.22,9.46-1.73,14.37-8.85,2.18-3.2,4.49-7.69,6.93-13.46-3.79,1.64-7.53,3.27-11.21,4.82-1.82,2.89-3.55,4.46-5.19,4.69Z"/>
  <path class="cls-4" d="m241.64,271.95l25.27-41.68c.23-4.54-.16-10.17-1.17-16.9-1.01-6.73-2.88-12.74-5.63-18.03s-6.53-8.08-11.38-8.37c-3,0-6.02,1.94-9.04,5.83-3.03,3.89-5.41,9.36-7.14,16.41-1.96,8.35-3.26,17.38-3.89,27.1-.63,9.72-.69,18.9-.17,27.53.58,11.09,2.21,20.53,4.89,28.34.47,1.35.97,2.61,1.5,3.76,3.92-1.21,7.91-2.66,11.98-4.26-2.31-2.67-4.05-9.24-5.21-19.75Zm-.52-35.31c.63-8.64,1.73-16.3,3.29-23,2.31-8.28,4.5-12.09,6.58-11.45s3.84,3.49,5.28,8.53c1.44,5.04,2.42,10.01,2.94,14.9l-18.52,30.77c-.17-6.69-.03-13.28.43-19.76Z"/>
  <path class="cls-4" d="m262.76,269.69c-2.74,8.61-5.32,14.83-7.75,18.69,3.69-1.56,7.43-3.18,11.21-4.82,1.24-2.93,2.5-6.17,3.81-9.76l-7.27-4.1Z"/>
  <path class="cls-4" d="m298.24,241.72c-2.48-3.67-4.93-7.56-7.36-11.66-2.48-4.61-3.89-9.56-4.24-14.85-.35-5.29.22-9.72,1.69-13.28,1.47-3.56,3.76-4.98,6.88-4.27,1.9.72,3.43,2.88,4.59,6.48,1.15,3.6,1.67,7.63,1.56,12.09-.12,4.46-1.13,8.42-3.03,11.88l9,4.32c2.25-4.18,3.39-9.75,3.42-16.74.03-6.98-1.21-13.35-3.72-19.11-2.51-5.76-6.45-8.89-11.81-9.39-4.62-.07-8.81,2.09-12.59,6.48-3.78,4.39-5.96,10.31-6.53,17.76-.58,7.45,1.64,15.82,6.66,25.11,2.08,3.6,4.36,7.16,6.84,10.69,1.87,2.62,3.62,5.31,5.27,8.05,2.94-1.73,5.99-3.31,9.11-4.71-1.77-3.02-3.67-5.98-5.73-8.85Z"/>
  <path class="cls-3" d="m303.17,277.79c.17,2.81.14,5.4-.09,7.77-.23,2.38-.95,4.68-2.16,6.91-2.08,3.53-3.82,4.52-5.24,2.97-1.41-1.55-2.51-4.32-3.29-8.31-.78-4-1.21-7.95-1.3-11.88-.01-.63-.02-1.22-.02-1.79-3.7,1.32-7.36,2.74-10.99,4.21.28,2.68.7,5.36,1.26,8.05,1.33,6.3,3.32,11.55,5.97,15.76s5.83,6.32,9.52,6.32c3.64-.36,6.65-2.25,9.04-5.67,2.39-3.42,4.15-7.47,5.28-12.15,1.13-4.68,1.57-9.07,1.34-13.17-.25-3.28-.71-6.35-1.36-9.23-3.16.68-6.3,1.5-9.41,2.4.7,2.52,1.18,5.12,1.42,7.8Z"/>
  <path class="cls-3" d="m291.75,267.31l-12.03-.43c-.13,3.59,0,7.19.38,10.8,3.62-1.47,7.29-2.89,10.99-4.21,0-2.94.23-5,.66-6.15Z"/>
  <path class="cls-3" d="m303.97,250.57c-3.12,1.4-6.17,2.98-9.11,4.71,1.26,2.09,2.47,4.2,3.6,6.36,1.4,2.67,2.49,5.46,3.3,8.34,3.11-.91,6.25-1.72,9.41-2.4-.84-3.76-2.01-7.18-3.53-10.26-1.13-2.3-2.37-4.54-3.66-6.76Z"/>
  <path class="cls-4" d="m341.66,242.56c-.2-.28-.38-.56-.58-.84-2.48-3.67-4.93-7.56-7.36-11.66-2.48-4.61-3.89-9.56-4.24-14.85-.35-5.29.22-9.72,1.69-13.28,1.47-3.56,3.76-4.98,6.88-4.27,1.9.72,3.43,2.88,4.59,6.48s1.67,7.63,1.56,12.09-1.13,8.42-3.03,11.88l9,4.32c2.25-4.18,3.39-9.75,3.42-16.74.03-6.98-1.21-13.35-3.72-19.11-2.51-5.76-6.45-8.89-11.81-9.39-4.62-.07-8.81,2.09-12.59,6.48-3.78,4.39-5.96,10.31-6.53,17.76-.58,7.45,1.64,15.82,6.66,25.11,1.29,2.23,2.66,4.44,4.1,6.64,4.06-.53,8.08-.75,11.97-.62Z"/>
  <path class="cls-3" d="m341.3,261.64c2.63,5,4.2,10.38,4.72,16.14.17,2.81.14,5.4-.09,7.77-.23,2.38-.95,4.68-2.16,6.91-2.08,3.53-3.82,4.52-5.24,2.97-1.41-1.55-2.51-4.32-3.29-8.31-.78-4-1.21-7.95-1.3-11.88-.09-3.92.13-6.57.65-7.94l-12.03-.43c-.23,6.26.32,12.54,1.64,18.84s3.32,11.55,5.97,15.76c2.65,4.21,5.83,6.32,9.52,6.32,3.64-.36,6.65-2.25,9.04-5.67,2.39-3.42,4.15-7.47,5.28-12.15,1.13-4.68,1.57-9.07,1.34-13.17-.58-7.56-2.21-14.06-4.89-19.49-.49-.98-1-1.95-1.52-2.92-2.65,2.3-5.45,4.29-8.37,5.94.24.44.48.87.71,1.31Z"/>
  <path class="cls-3" d="m329.69,243.18c.89,1.36,1.79,2.71,2.74,4.05,3,4.2,5.71,8.58,8.16,13.11,2.92-1.65,5.71-3.64,8.37-5.94-2.17-4.08-4.6-8.03-7.3-11.85-3.89-.13-7.91.09-11.97.62Z"/>
  <path class="cls-3" d="m362.27,247.27c1.57.77,3.07,1.63,4.49,2.59,2.6,1.76,5.31,3.41,8.11,4.95l-1-44.21c-2.5,10.3-6.55,19.99-11.8,28.29l.2,8.38Z"/>
  <path class="cls-1" d="m373.28,161.92h-.23c.07.25.16.49.23.74v-.74Z"/>
  <path class="cls-4" d="m360.99,180.39l12.38-.11-.08-17.62c-.07-.25-.15-.49-.23-.73l-12.15.11.09,18.36Z"/>
  <path class="cls-4" d="m360.9,188.81l1.17,50.08c5.25-8.3,9.3-18,11.8-28.29l-.5-22.22-12.46.43Z"/>
  <path class="cls-3" d="m362.27,247.27l1.41,60.21,12.38-.43-1.18-52.24c-2.79-1.54-5.51-3.18-8.11-4.95-1.42-.96-2.92-1.82-4.49-2.59Z"/>
  <path class="cls-1" d="m399.03,249.33c-.14-11.7.01-23.27.48-34.72l13.67-1.3-.61-10.37-12.46,1.3c.87-12.31,2.54-22.68,5.02-31.1,2.48-8.42,6.12-13.57,10.91-15.44l.17-9.5c-5.42.22-9.95,2.88-13.59,7.99s-6.53,11.93-8.7,20.46-3.76,18.09-4.8,28.67l-7.88.76.61,10.26,6.4-.65c-.87,12.81-1.28,25.57-1.25,38.28,0,2.29.02,4.52.03,6.73,4.02,1.74,8.13,3.34,12.27,4.84-.12-5.22-.21-10.62-.28-16.22Z"/>
  <path class="cls-3" d="m387.56,290.63c.17,5.97.32,11.16.43,15.55l12.38-.22c-.06-5.4-.2-11.41-.43-18.03-.06-1.94-.12-3.92-.17-5.94-.18-5.26-.33-10.75-.46-16.45-4.14-1.5-8.25-3.1-12.27-4.84.07,10.06.25,19.33.53,27.77v2.16Z"/>
  <path class="cls-1" d="m448.23,281.89c.52-2.66,1.04-5.51,1.56-8.53.03,3.52.01,6.92-.05,10.23,4.2,2.01,8.02,4.2,11.35,6.66.68-8.6,1.13-18,1.34-28.22.23-18.86-.14-36.5-1.13-52.91-.4-7.99-.69-15.19-.87-21.6l-12.38-.54c0,12.81.2,25.41.61,37.79-.4,9.29-1.24,18.99-2.51,29.1-1.27,10.11-2.74,18.82-4.41,26.13,0,.03-.02.07-.02.1,2.18.87,4.29,1.76,6.32,2.69.06-.3.13-.6.19-.9Z"/>
  <path class="cls-1" d="m431.01,193.35l-8.31-.32c-.71,35.61-.36,62.51,1.05,80.72,2.88.95,5.72,1.89,8.49,2.85-1.67-17.27-2.08-45.01-1.23-83.25Z"/>
  <path class="cls-3" d="m448.06,309.1c-1.27,10.29-3.74,18.27-7.4,23.92-3.66,5.65-8.99,8.37-15.97,8.15l-.35,10.58c10.16.43,17.9-2.81,23.24-9.72s9.04-17.13,11.12-30.67c.98-6.39,1.77-13.44,2.38-21.12-3.33-2.46-7.15-4.65-11.35-6.66-.18,9.39-.74,17.9-1.68,25.52Z"/>
  <path class="cls-3" d="m431.53,307.21c2.89,2.77,5.86,1.8,8.91-2.92,2.97-4.57,5.5-11.75,7.6-21.5-2.03-.93-4.14-1.83-6.32-2.69-1.67,7.24-3.3,11.35-4.91,12.32-1.62.97-3-3.01-4.15-11.93-.15-1.23-.29-2.53-.42-3.89-2.77-.96-5.61-1.91-8.49-2.85.32,4.14.69,7.82,1.12,11.06,1.56,12.17,3.78,19.63,6.66,22.41Z"/>
</svg>