<?xml version="1.0" encoding="UTF-8"?>
<svg id="Calque_1" data-name="Calque 1" xmlns="http://www.w3.org/2000/svg" viewBox="0 0 500 500">
  <defs>
    <style>
      .cls-1 {
        stroke: #1d1d1b;
        stroke-linecap: round;
        stroke-linejoin: round;
        stroke-width: 3px;
      }

      .cls-1, .cls-2 {
        fill: #1d1d1b;
      }

      .cls-3 {
        fill: #fff;
      }

      .cls-3, .cls-4, .cls-5, .cls-2 {
        stroke-width: 0px;
      }

      .cls-4 {
        fill: #683c11;
      }

      .cls-5 {
        fill: #ca9e67;
      }
    </style>
  </defs>
  <path class="cls-5" d="m271.07,156.48c-21.44,18.84-49.78,21.64-68.62.2-18.84-21.44-5.89-61.21,15.41-63.83,28.33-3.47,52.51-32.23,71.35-10.79,18.84,21.44,3.31,55.58-18.14,74.42Z"/>
  <path class="cls-5" d="m253.42,425.87c-43.51,38.23-101.02,43.91-139.25.4-38.23-43.51-11.95-124.22,31.27-129.51,57.49-7.05,106.55-65.41,144.78-21.9,38.23,43.51,6.71,112.79-36.8,151.02Z"/>
  <path class="cls-4" d="m418.75,242.98c0,57.92-33.69,104.87-91.61,104.87s-101.2-73.01-76.65-108.98c32.65-47.84,21.19-123.22,79.11-123.22s89.16,69.41,89.16,127.32Z"/>
  <path class="cls-2" d="m149.53,179.9s-50.21-105.46-31.62-124.42,31.62,29.62,45.84,124.42h-14.22Z"/>
  <path class="cls-1" d="m102.24,190.67s169.05-15.01,263.06,0c0,0,10.27,80.58-23.7,132.72l48.19,82.95-96.38-40.29s-208.55,68.73-191.17-175.37Z"/>
  <circle class="cls-3" cx="165.42" cy="242.52" r="26.66"/>
  <circle class="cls-3" cx="287.46" cy="242.52" r="26.66"/>
</svg>