<svg xmlns="http://www.w3.org/2000/svg" xmlns:xlink="http://www.w3.org/1999/xlink" width="500" zoomAndPan="magnify" viewBox="0 0 375 374.999991" height="500" preserveAspectRatio="xMidYMid meet" version="1.0"><path fill="#f4deda" d="M 250.984375 269.019531 C 241.433594 269.191406 231.945312 267.5625 222.75 265.0625 C 215.703125 263.199219 206.679688 257.441406 199.753906 261.804688 C 197.484375 263.199219 195.503906 265.003906 193.234375 266.402344 C 188.691406 269.191406 183.746094 271.402344 178.679688 273.089844 C 168.78125 276.347656 158.246094 277.453125 147.941406 276.640625 C 127.277344 274.953125 107.714844 265.761719 91.007812 253.425781 C 70.339844 238.125 52.933594 216.425781 49.5 190.945312 C 46.066406 165.464844 60.269531 136.898438 85.011719 129.859375 C 104.628906 124.273438 127.800781 132.242188 144.972656 121.191406 C 156.382812 113.859375 161.738281 100.128906 170.878906 90.066406 C 183.628906 76.042969 202.957031 69.992188 221.757812 67.609375 C 232.644531 66.210938 243.878906 65.921875 254.417969 69.121094 C 277.585938 76.21875 292.664062 99.257812 298.3125 122.820312 C 303.957031 146.324219 302.09375 170.929688 302.445312 195.132812 C 302.734375 213.925781 303.898438 234.402344 292.898438 249.644531 C 283.464844 262.5625 266.875 268.726562 250.984375 269.019531 Z M 250.984375 269.019531 " fill-opacity="1" fill-rule="nonzero"/><path fill="#ffffff" d="M 193.988281 292.695312 C 188.226562 288.742188 183.105469 284.027344 178.386719 278.96875 C 174.777344 275.011719 171.808594 270.878906 168.726562 266.515625 C 166.046875 262.792969 162.960938 259.011719 158.421875 257.5 C 155.859375 256.625 153.125 256.859375 150.503906 256.917969 C 146.71875 256.976562 142.9375 256.570312 139.210938 255.871094 C 113.1875 250.75 93.394531 231.496094 81.519531 208.515625 C 69.875 185.941406 63.472656 158.367188 69.117188 133.234375 C 74.183594 110.890625 90.367188 91.636719 113.304688 86.457031 C 124.015625 84.074219 134.667969 85.761719 144.273438 90.996094 C 153.878906 96.230469 162.148438 103.621094 171.636719 108.972656 C 181.589844 114.617188 192.128906 116.710938 203.363281 113.976562 C 216.285156 110.835938 227.753906 103.910156 241.320312 103.5625 C 255.058594 103.214844 268.5625 107.75 280.730469 113.859375 C 292.140625 119.621094 303.726562 126.773438 310.945312 137.597656 C 324.449219 157.839844 321.191406 184.894531 311.699219 206.070312 C 306.226562 218.171875 298.953125 229.339844 291.324219 240.164062 C 283.992188 250.578125 276.597656 260.988281 269.320312 271.460938 C 262.859375 280.769531 255.757812 290.3125 246.035156 296.421875 C 235.324219 303.167969 222.691406 304.15625 210.699219 300.550781 C 204.761719 298.980469 199.171875 296.1875 193.988281 292.695312 C 191.371094 290.953125 188.925781 295.199219 191.546875 296.945312 C 202.371094 304.214844 215.703125 308.8125 228.859375 307.589844 C 240.851562 306.425781 251.214844 300.316406 259.539062 291.824219 C 268.097656 283.039062 274.617188 272.507812 281.605469 262.503906 C 289.695312 250.867188 298.3125 239.582031 305.820312 227.539062 C 319.210938 205.953125 328.816406 180.53125 323.34375 154.875 C 320.722656 142.65625 314.320312 131.71875 304.773438 123.574219 C 294.703125 114.90625 282.242188 108.449219 269.785156 103.910156 C 256.511719 99.082031 242.015625 97.046875 228.164062 100.59375 C 215.296875 103.910156 202.898438 112.054688 189.160156 110.3125 C 177.804688 108.855469 168.316406 101.292969 159.234375 94.894531 C 149.804688 88.203125 139.964844 82.152344 128.265625 80.816406 C 106.027344 78.371094 83.789062 92.277344 72.671875 111.066406 C 58.929688 134.28125 60.386719 163.601562 68.1875 188.5 C 75.871094 213.109375 90.25 236.960938 112.722656 250.632812 C 124.945312 258.082031 138.511719 261.804688 152.832031 261.746094 C 158.945312 261.746094 162.148438 265.46875 165.40625 270.183594 C 168.78125 275.070312 172.277344 279.605469 176.410156 283.855469 C 181.007812 288.683594 186.074219 293.105469 191.601562 296.886719 C 194.105469 298.746094 196.550781 294.5 193.988281 292.695312 Z M 193.988281 292.695312 " fill-opacity="1" fill-rule="nonzero"/></svg>