<svg xmlns="http://www.w3.org/2000/svg" xmlns:xlink="http://www.w3.org/1999/xlink" width="500" zoomAndPan="magnify" viewBox="0 0 375 374.999991" height="500" preserveAspectRatio="xMidYMid meet" version="1.0"><defs><clipPath id="4e5fae5e26"><path d="M 65.109375 109 L 308 109 L 308 270 L 65.109375 270 Z M 65.109375 109 " clip-rule="nonzero"/></clipPath></defs><g clip-path="url(#4e5fae5e26)"><path fill="#d7b18f" d="M 269.699219 178.566406 C 269.824219 180.089844 270.003906 181.75 270.1875 183.332031 C 270.847656 186.042969 271.859375 188.617188 273.222656 191.050781 C 274.300781 192.90625 275.566406 194.621094 277.019531 196.195312 C 278.84375 198.050781 278.644531 198.371094 283.203125 202.769531 C 295.136719 214.246094 295.867188 214.550781 301.074219 221.917969 C 301.640625 222.773438 302.144531 223.660156 302.59375 224.582031 C 306.710938 232.191406 309.65625 242.847656 304.234375 249.421875 C 293.605469 262.285156 265.8125 249.878906 252.769531 244.855469 C 246.695312 242.511719 237.777344 238.386719 228.152344 238.617188 C 218.25 238.828125 209.609375 242.984375 201.164062 248.175781 C 196.308594 251.046875 191.640625 254.203125 187.164062 257.640625 C 181.726562 261.066406 175.484375 265.253906 166.917969 267.503906 C 154.164062 270.824219 140.207031 268.160156 134.40625 264.082031 C 131.882812 262.53125 129.582031 260.703125 127.496094 258.601562 C 123.703125 254.84375 120.667969 250.550781 118.382812 245.722656 C 117.972656 244.964844 116.867188 243.105469 116.714844 242.679688 C 116.222656 241.589844 115.601562 240.574219 114.859375 239.636719 C 113.996094 238.507812 109.058594 230.777344 103.199219 228.3125 C 99.691406 226.949219 96.105469 225.839844 92.445312 224.976562 C 90.820312 224.476562 89.273438 223.773438 87.675781 223.210938 C 81.375 220.898438 67.085938 204.992188 66.21875 195.21875 C 65.566406 187.714844 65.140625 181.355469 67.648438 174.230469 C 72.808594 159.542969 73.160156 159.664062 75.664062 154.730469 C 85.355469 135.644531 103.683594 128.0625 121.90625 132.996094 C 126.113281 134.136719 134.632812 136.601562 139.660156 138.277344 C 142.460938 139.242188 145.320312 139.972656 148.238281 140.472656 C 151.160156 140.96875 154.097656 141.226562 157.058594 141.246094 C 160.023438 141.265625 162.964844 141.046875 165.890625 140.585938 C 168.816406 140.125 171.683594 139.433594 174.496094 138.503906 C 179.644531 136.753906 178.613281 137.378906 188.027344 132.628906 C 194.710938 129.222656 207.984375 116.890625 223.183594 111.550781 C 244.097656 104.210938 268.578125 116.117188 272.175781 145.203125 C 273.285156 154.136719 268.972656 168.507812 269.699219 178.566406 Z M 269.699219 178.566406 " fill-opacity="1" fill-rule="nonzero"/></g></svg>