<svg xmlns="http://www.w3.org/2000/svg" xmlns:xlink="http://www.w3.org/1999/xlink" width="500" zoomAndPan="magnify" viewBox="0 0 375 374.999991" height="500" preserveAspectRatio="xMidYMid meet" version="1.0"><path fill="#f9e7cf" d="M 212.472656 69.867188 L 210.421875 69.960938 C 195.617188 69.863281 175.585938 73.882812 150.332031 82.027344 C 129.558594 89.441406 114.5 96.972656 105.15625 104.621094 C 96.140625 111.921875 90.746094 117.03125 88.976562 119.949219 C 85.660156 124.171875 82.796875 128.714844 80.386719 133.582031 C 73.457031 148.5625 69.265625 164.738281 67.804688 182.113281 C 65.375 204.207031 65.359375 224.875 67.753906 244.121094 C 71.222656 261.328125 75.480469 272.269531 80.527344 276.941406 C 83.800781 282.871094 93.972656 288.601562 111.039062 294.132812 L 162.441406 306.183594 C 173.113281 308.042969 181.28125 308.757812 186.949219 308.328125 C 209.242188 307.328125 234.429688 296.941406 262.507812 277.167969 L 300.257812 249.8125 C 308.433594 243.238281 313.0625 239.125 314.144531 237.476562 C 320.332031 229.746094 323.535156 224.839844 323.75 222.757812 C 325.285156 218.769531 326.144531 215.25 326.324219 212.207031 C 327.558594 203.828125 324.199219 192.464844 316.242188 178.117188 C 301.558594 154.230469 285.652344 131.632812 268.515625 110.328125 C 255.183594 93.320312 245.753906 83.101562 240.21875 79.675781 C 232.015625 73.386719 222.765625 70.117188 212.472656 69.867188 " fill-opacity="1" fill-rule="nonzero"/><path fill="#cfb48b" d="M 235.128906 71.171875 C 235.082031 71.125 222.03125 58.324219 213.84375 55.082031 C 213.195312 54.828125 212.542969 54.582031 211.878906 54.351562 C 197.550781 49.324219 179.609375 49.84375 166.875 57.625 C 157.914062 63.101562 152.945312 73.832031 148.601562 83.746094 C 146.585938 88.347656 144.726562 93.0625 142.859375 97.800781 C 140.984375 102.550781 139.105469 107.320312 137.058594 111.992188 C 133.414062 120.308594 129.234375 128.34375 123.59375 135.464844 C 115.296875 145.949219 103.664062 153.328125 92.210938 160.601562 C 80.796875 167.851562 69.566406 174.992188 61.636719 185.007812 C 60.273438 186.726562 59.011719 188.53125 57.863281 190.429688 C 48.886719 205.292969 53.558594 225.859375 58.1875 243.066406 C 66.042969 272.234375 82.328125 305.34375 109.902344 316.808594 C 111.164062 317.335938 112.433594 317.820312 113.722656 318.273438 C 125.625 322.445312 138.597656 323.644531 151.308594 324.460938 C 175.585938 326.015625 200.105469 324.804688 224.273438 321.824219 C 240.441406 319.828125 256.625 317.128906 272.109375 312.230469 C 283.519531 308.621094 297.109375 302.339844 300.207031 291.308594 C 303.269531 280.414062 299.035156 268.273438 294.914062 257.375 C 292.09375 249.90625 288.808594 242.628906 285.507812 235.320312 C 282.742188 229.183594 279.960938 223.023438 277.457031 216.753906 C 270.199219 198.5625 266.414062 179.234375 262.652344 160.027344 C 261.324219 153.253906 260.003906 146.507812 258.53125 139.804688 C 255.195312 124.640625 251.707031 109.480469 246.585938 94.878906 C 243.667969 86.5625 235.011719 71.019531 234.996094 71 L 235.128906 71.171875 M 236.191406 70.089844 C 236.242188 70.140625 236.285156 70.199219 236.320312 70.261719 C 236.308594 70.242188 245.042969 85.914062 248.011719 94.378906 C 253.167969 109.078125 256.675781 124.316406 260.007812 139.480469 C 261.484375 146.199219 262.8125 152.96875 264.136719 159.734375 C 267.90625 178.96875 271.664062 198.152344 278.863281 216.191406 C 281.351562 222.425781 284.117188 228.554688 286.890625 234.695312 C 290.1875 242 293.488281 249.316406 296.332031 256.839844 C 300.414062 267.648438 304.882812 280.265625 301.667969 291.71875 C 298.320312 303.628906 283.875 310.097656 272.566406 313.675781 C 256.953125 318.613281 240.664062 321.328125 224.457031 323.328125 C 200.21875 326.316406 175.605469 327.535156 151.210938 325.972656 C 138.496094 325.15625 125.339844 323.949219 113.222656 319.699219 C 111.90625 319.238281 110.609375 318.746094 109.320312 318.207031 C 81.046875 306.449219 64.597656 272.699219 56.726562 243.460938 C 52.136719 226.402344 47.199219 205.15625 56.566406 189.648438 C 57.75 187.6875 59.050781 185.835938 60.449219 184.070312 C 68.566406 173.816406 80.03125 166.542969 91.398438 159.324219 C 102.894531 152.019531 114.296875 144.773438 122.40625 134.527344 C 127.929688 127.550781 132.050781 119.644531 135.667969 111.386719 C 137.703125 106.742188 139.574219 102 141.449219 97.246094 C 143.316406 92.511719 145.1875 87.769531 147.214844 83.140625 C 151.519531 73.3125 156.652344 62.097656 166.085938 56.332031 C 179.289062 48.261719 197.722656 47.78125 212.378906 52.921875 C 213.0625 53.160156 213.734375 53.410156 214.398438 53.675781 C 222.9375 57.054688 236.234375 70.132812 236.191406 70.089844 Z M 236.191406 70.089844 " fill-opacity="0.961" fill-rule="nonzero"/></svg>